<svg width="1708" height="2346" viewBox="0 0 1708 2346" fill="none" xmlns="http://www.w3.org/2000/svg">
<rect y="319.703" width="1708" height="1708" rx="75.1761" fill="url(#paint0_linear_1518_726)"/>
<path d="M1401.17 1507.67C1401.17 1567.59 1392.7 1622.3 1375.77 1671.8C1358.84 1719.99 1328.88 1761.68 1285.89 1796.85C1244.21 1830.71 1186.24 1857.42 1111.99 1876.96C1037.74 1896.5 943.303 1906.27 828.673 1906.27C715.346 1906.27 621.558 1896.5 547.309 1876.96C474.362 1857.42 416.396 1830.71 373.41 1796.85C331.726 1761.68 302.417 1719.99 285.484 1671.8C269.852 1622.3 262.036 1567.59 262.036 1507.67V1191.13C262.036 1166.38 267.247 1148.8 277.668 1138.38C289.391 1126.65 307.628 1120.79 332.378 1120.79H615.696C640.446 1120.79 658.031 1126.65 668.452 1138.38C680.175 1148.8 686.037 1166.38 686.037 1191.13V1429.51C686.037 1455.56 693.853 1477.71 709.484 1495.94C726.418 1512.88 764.845 1521.34 824.765 1521.34C880.778 1521.34 915.948 1512.88 930.277 1495.94C945.908 1477.71 953.724 1455.56 953.724 1429.51V540.476C953.724 515.726 958.934 498.141 969.355 487.72C981.079 475.997 999.315 470.135 1024.07 470.135H1330.83C1355.58 470.135 1373.17 475.997 1383.59 487.72C1395.31 498.141 1401.17 515.726 1401.17 540.476V1507.67ZM1166.7 645.988V1460.77C1166.7 1533.72 1143.25 1592.99 1096.36 1638.58C1049.47 1682.87 961.54 1705.01 832.581 1705.01C698.412 1705.01 606.578 1682.87 557.078 1638.58C508.882 1594.29 484.783 1535.02 484.783 1460.77V1306.41H465.244V1460.77C465.244 1499.85 470.455 1535.67 480.875 1568.24C492.599 1600.8 512.138 1628.81 539.493 1652.26C566.848 1674.4 603.972 1691.99 650.866 1705.01C699.063 1718.04 759.635 1724.55 832.581 1724.55C970.658 1724.55 1063.79 1699.8 1111.99 1650.3C1161.49 1600.8 1186.24 1537.63 1186.24 1460.77V645.988H1166.7Z" fill="black"/>
<defs>
<linearGradient id="paint0_linear_1518_726" x1="1390.88" y1="319.703" x2="282.33" y2="2004.81" gradientUnits="userSpaceOnUse">
<stop stop-color="white"/>
<stop offset="1" stop-color="#4B09D9"/>
</linearGradient>
</defs>
</svg>
