<svg width="1136" height="1559" viewBox="0 0 1136 1559" fill="none" xmlns="http://www.w3.org/2000/svg">
<rect y="212" width="1136" height="1136" rx="50" fill="url(#paint0_linear_1518_726)"/>
<path d="M931.927 1001.38C931.927 1041.24 926.295 1077.62 915.033 1110.55C903.77 1142.6 883.843 1170.33 855.253 1193.72C827.529 1216.24 788.975 1234 739.592 1247C690.208 1260 627.396 1266.49 551.155 1266.49C475.781 1266.49 413.402 1260 364.018 1247C315.501 1234 276.947 1216.24 248.357 1193.72C220.633 1170.33 201.14 1142.6 189.877 1110.55C179.48 1077.62 174.282 1041.24 174.282 1001.38V790.854C174.282 774.392 177.748 762.696 184.679 755.765C192.476 747.968 204.605 744.069 221.066 744.069H409.503C425.964 744.069 437.66 747.968 444.591 755.765C452.388 762.696 456.287 774.392 456.287 790.854V949.4C456.287 966.728 461.485 981.456 471.882 993.585C483.145 1004.85 508.703 1010.48 548.556 1010.48C585.81 1010.48 609.202 1004.85 618.732 993.585C629.129 981.456 634.327 966.728 634.327 949.4V358.099C634.327 341.638 637.793 329.942 644.724 323.011C652.521 315.214 664.65 311.315 681.111 311.315H885.143C901.604 311.315 913.3 315.214 920.231 323.011C928.028 329.942 931.927 341.638 931.927 358.099V1001.38ZM775.979 428.276V970.193C775.979 1018.71 760.385 1058.13 729.195 1088.45C698.006 1117.91 639.525 1132.64 553.754 1132.64C464.518 1132.64 403.438 1117.91 370.516 1088.45C338.46 1059 322.432 1019.58 322.432 970.193V867.528H309.437V970.193C309.437 996.184 312.902 1020.01 319.833 1041.67C327.63 1063.33 340.626 1081.96 358.82 1097.55C377.014 1112.28 401.705 1123.97 432.895 1132.64C464.951 1141.3 505.237 1145.63 553.754 1145.63C645.59 1145.63 707.536 1129.17 739.592 1096.25C772.514 1063.33 788.975 1021.31 788.975 970.193V428.276H775.979Z" fill="black"/>
<defs>
<linearGradient id="paint0_linear_1518_726" x1="925.079" y1="212" x2="187.779" y2="1332.78" gradientUnits="userSpaceOnUse">
<stop stop-color="white"/>
<stop offset="1" stop-color="#4B09D9"/>
</linearGradient>
</defs>
</svg>
