<svg width="1136" height="1235" viewBox="0 0 1136 1235" fill="none" xmlns="http://www.w3.org/2000/svg">
<rect y="99" width="1136" height="1136" rx="50" fill="url(#paint0_linear_1517_724)"/>
<path d="M364.869 1136.72C345.538 1136.72 325.921 1134.45 306.021 1129.9C286.689 1125.92 267.357 1120.23 248.025 1112.84C207.656 1095.21 175.531 1072.75 151.65 1045.46C119.241 1006.23 103.037 978.938 103.037 963.586C103.037 952.215 112.418 946.529 131.181 946.529C136.299 946.529 139.994 948.235 142.269 951.646C144.543 955.058 147.67 959.606 151.65 965.292C155.062 970.978 159.611 977.801 165.296 985.761C216.469 1049.44 267.357 1081.28 317.961 1081.28C432.815 1081.28 525.779 997.417 596.852 829.685C592.872 830.253 588.607 830.538 584.058 830.538C580.078 830.538 575.814 830.538 571.265 830.538C524.641 830.538 486.546 818.313 456.98 793.864C427.414 768.278 412.63 731.604 412.63 683.843C412.63 620.73 437.648 561.598 487.683 506.445C533.739 455.272 588.607 419.452 652.289 398.983C643.191 365.436 631.251 337.86 616.468 316.254L624.144 340.987C624.144 347.81 620.164 357.476 612.203 369.985C604.243 383.062 599.126 389.601 596.852 389.601C590.597 389.601 587.47 378.798 587.47 357.192V351.222C602.253 330.184 609.645 313.979 609.645 302.608C609.645 297.49 608.792 292.373 607.086 287.256C631.535 309.999 649.73 346.104 661.67 395.571C695.785 384.768 734.733 379.366 778.514 379.366C783.063 379.366 788.18 379.366 793.866 379.366C799.552 379.366 805.806 379.651 812.629 380.219L821.158 366.573C851.293 318.244 883.134 294.079 916.68 294.079C924.072 294.079 931.747 296.353 939.708 300.902C948.236 305.451 952.501 311.136 952.501 317.959C952.501 328.194 949.089 333.311 942.266 333.311C940.561 333.311 936.296 329.047 929.473 320.518C922.082 311.421 912.984 306.872 902.181 306.872C876.026 306.872 854.136 331.605 836.51 381.072C849.587 381.641 860.959 382.209 870.625 382.778C880.291 382.778 888.535 382.778 895.358 382.778C973.823 382.778 1013.05 362.025 1013.05 320.518C1013.05 310.852 1010.5 300.902 1005.38 290.667C1000.26 280.433 997.703 274.463 997.703 272.757C997.703 271.051 998.556 270.198 1000.26 270.198C1005.38 270.198 1009.93 277.306 1013.91 291.52C1017.89 302.892 1019.88 312.274 1019.88 319.665C1019.88 327.625 1018.74 334.733 1016.47 340.987C1001.68 384.199 963.588 405.806 902.181 405.806C898.77 405.806 891.378 405.521 880.006 404.953C868.635 403.816 852.999 403.247 833.098 403.247H829.687L798.983 514.974C783.063 572.969 768.848 623.857 756.339 667.638C743.831 711.419 732.459 748.377 722.224 778.512C757.477 754.632 782.21 724.781 796.425 688.96C800.405 680.432 802.395 672.756 802.395 665.933C802.395 661.953 801.257 659.11 798.983 657.404C797.277 655.698 796.425 654.561 796.425 653.992C796.425 649.444 799.552 647.169 805.806 647.169C814.903 647.169 819.452 653.708 819.452 666.786C819.452 672.471 817.746 679.294 814.335 687.255C797.277 728.193 765.152 762.592 717.96 790.453L714.548 800.687C703.177 835.371 690.952 866.358 677.875 893.65C664.797 920.374 652.289 943.686 640.348 963.586C567.57 1079.01 475.743 1136.72 364.869 1136.72ZM619.879 813.48C637.505 811.774 653.71 808.363 668.493 803.246C678.159 771.405 690.384 731.32 705.167 682.99C720.519 634.661 738.429 578.655 758.898 514.974C766.858 489.956 774.534 467.781 781.926 448.449C789.886 429.117 796.709 413.197 802.395 400.688C764.868 397.277 740.703 395.571 729.9 395.571C704.883 395.571 682.708 398.414 663.376 404.1C667.925 423.432 671.336 443.332 673.61 463.801C675.885 484.27 677.022 505.308 677.022 526.914C677.022 616.182 657.974 711.704 619.879 813.48ZM601.969 813.48H603.675C612.772 791.305 621.016 768.846 628.408 746.103C635.8 722.791 642.338 699.479 648.024 676.167C640.633 652.287 626.134 640.346 604.527 640.346C601.116 640.346 597.136 641.199 592.587 642.905V638.641C592.587 630.112 595.999 622.152 602.822 614.76C609.645 607.369 617.321 603.673 625.849 603.673C644.613 603.673 653.71 619.309 653.141 650.581C661.67 608.506 665.934 566.146 665.934 523.502C665.934 501.896 664.797 481.427 662.523 462.095C660.817 442.764 657.974 424.285 653.994 406.658C600.547 423.147 553.924 458.684 514.123 513.268C494.791 540.56 480.008 568.136 469.773 595.997C459.539 623.289 454.421 651.149 454.421 679.579C454.421 721.085 468.92 754.347 497.918 779.365C525.21 802.108 559.894 813.48 601.969 813.48ZM360.605 1123.93C449.873 1123.93 531.18 1065.36 604.527 948.235C614.762 931.746 624.996 912.414 635.231 890.239C645.466 868.064 655.131 843.047 664.229 815.186C656.269 817.46 648.024 819.735 639.495 822.009C630.967 824.283 622.438 825.989 613.909 827.126C561.031 959.606 489.674 1043.76 399.837 1079.58C379.368 1088.11 355.772 1092.37 329.049 1092.37C264.23 1092.37 213.058 1073.04 175.531 1034.37C234.095 1094.08 295.786 1123.93 360.605 1123.93Z" fill="white"/>
<defs>
<linearGradient id="paint0_linear_1517_724" x1="867.671" y1="99" x2="268.329" y2="1235" gradientUnits="userSpaceOnUse">
<stop/>
<stop offset="1" stop-color="#5E13FE"/>
</linearGradient>
</defs>
</svg>
