<svg width="1136" height="1173" viewBox="0 0 1136 1173" fill="none" xmlns="http://www.w3.org/2000/svg">
<rect y="31" width="1136" height="1136" rx="50" fill="url(#paint0_linear_1517_725)"/>
<path d="M841.035 753.23C841.035 783.21 836.799 810.583 828.326 835.35C819.853 859.464 804.863 880.32 783.356 897.918C762.5 914.863 733.497 928.224 696.347 938C659.198 947.776 611.946 952.664 554.592 952.664C497.89 952.664 450.965 947.776 413.815 938C377.317 928.224 348.314 914.863 326.807 897.918C305.951 880.32 291.287 859.464 282.814 835.35C274.993 810.583 271.082 783.21 271.082 753.23V594.855C271.082 582.472 273.689 573.673 278.903 568.459C284.769 562.594 293.894 559.661 306.277 559.661H448.032C460.415 559.661 469.214 562.594 474.427 568.459C480.293 573.673 483.226 582.472 483.226 594.855V714.125C483.226 727.16 487.137 738.24 494.958 747.364C503.43 755.837 522.657 760.073 552.637 760.073C580.662 760.073 598.259 755.837 605.429 747.364C613.25 738.24 617.16 727.16 617.16 714.125V269.308C617.16 256.924 619.767 248.126 624.981 242.912C630.847 237.046 639.971 234.113 652.354 234.113H805.841C818.224 234.113 827.023 237.046 832.237 242.912C838.102 248.126 841.035 256.924 841.035 269.308V753.23ZM723.721 322.099V729.767C723.721 766.265 711.989 795.919 688.526 818.73C665.063 840.89 621.071 851.969 556.548 851.969C489.418 851.969 443.47 840.89 418.703 818.73C394.588 796.571 382.531 766.916 382.531 729.767V652.535H372.755V729.767C372.755 749.319 375.362 767.242 380.576 783.536C386.442 799.83 396.218 813.842 409.905 825.574C423.591 836.653 442.166 845.452 465.629 851.969C489.744 858.487 520.05 861.746 556.548 861.746C625.633 861.746 672.233 849.362 696.347 824.596C721.114 799.83 733.497 768.22 733.497 729.767V322.099H723.721Z" fill="black"/>
<defs>
<linearGradient id="paint0_linear_1517_725" x1="925.079" y1="31" x2="187.779" y2="1151.78" gradientUnits="userSpaceOnUse">
<stop stop-color="white"/>
<stop offset="1" stop-color="#4B09D9"/>
</linearGradient>
</defs>
</svg>
