<svg width="1136" height="1295" viewBox="0 0 1136 1295" fill="none" xmlns="http://www.w3.org/2000/svg">
<rect y="60" width="1136" height="1235" rx="50" fill="url(#paint0_linear_1522_727)"/>
<path d="M360.869 1136.72C341.538 1136.72 321.921 1134.45 302.021 1129.9C282.689 1125.92 263.357 1120.23 244.025 1112.84C203.656 1095.21 171.531 1072.75 147.65 1045.46C115.241 1006.23 99.0365 978.938 99.0365 963.586C99.0365 952.215 108.418 946.529 127.181 946.529C132.299 946.529 135.994 948.235 138.269 951.646C140.543 955.058 143.67 959.606 147.65 965.292C151.062 970.978 155.611 977.801 161.296 985.761C212.469 1049.44 263.357 1081.28 313.961 1081.28C428.815 1081.28 521.779 997.417 592.852 829.685C588.872 830.253 584.607 830.538 580.058 830.538C576.078 830.538 571.814 830.538 567.265 830.538C520.641 830.538 482.546 818.313 452.98 793.864C423.414 768.278 408.63 731.604 408.63 683.843C408.63 620.73 433.648 561.598 483.683 506.445C529.739 455.272 584.607 419.452 648.289 398.983C639.191 365.436 627.251 337.86 612.468 316.254L620.144 340.987C620.144 347.81 616.164 357.476 608.203 369.985C600.243 383.062 595.126 389.601 592.852 389.601C586.597 389.601 583.47 378.798 583.47 357.192V351.222C598.253 330.184 605.645 313.979 605.645 302.608C605.645 297.49 604.792 292.373 603.086 287.256C627.535 309.999 645.73 346.104 657.67 395.571C691.785 384.768 730.733 379.366 774.514 379.366C779.063 379.366 784.18 379.366 789.866 379.366C795.552 379.366 801.806 379.651 808.629 380.219L817.158 366.573C847.293 318.244 879.134 294.079 912.68 294.079C920.072 294.079 927.747 296.353 935.708 300.902C944.236 305.451 948.501 311.136 948.501 317.959C948.501 328.194 945.089 333.311 938.266 333.311C936.561 333.311 932.296 329.047 925.473 320.518C918.082 311.421 908.984 306.872 898.181 306.872C872.026 306.872 850.136 331.605 832.51 381.072C845.587 381.641 856.959 382.209 866.625 382.778C876.291 382.778 884.535 382.778 891.358 382.778C969.823 382.778 1009.05 362.025 1009.05 320.518C1009.05 310.852 1006.5 300.902 1001.38 290.667C996.262 280.433 993.703 274.463 993.703 272.757C993.703 271.051 994.556 270.198 996.262 270.198C1001.38 270.198 1005.93 277.306 1009.91 291.52C1013.89 302.892 1015.88 312.274 1015.88 319.665C1015.88 327.625 1014.74 334.733 1012.47 340.987C997.683 384.199 959.588 405.806 898.181 405.806C894.77 405.806 887.378 405.521 876.006 404.953C864.635 403.816 848.999 403.247 829.098 403.247H825.687L794.983 514.974C779.063 572.969 764.848 623.857 752.339 667.638C739.831 711.419 728.459 748.377 718.224 778.512C753.477 754.632 778.21 724.781 792.425 688.96C796.405 680.432 798.395 672.756 798.395 665.933C798.395 661.953 797.257 659.11 794.983 657.404C793.277 655.698 792.425 654.561 792.425 653.992C792.425 649.444 795.552 647.169 801.806 647.169C810.903 647.169 815.452 653.708 815.452 666.786C815.452 672.471 813.746 679.294 810.335 687.255C793.277 728.193 761.152 762.592 713.96 790.453L710.548 800.687C699.177 835.371 686.952 866.358 673.875 893.65C660.797 920.374 648.289 943.686 636.348 963.586C563.57 1079.01 471.743 1136.72 360.869 1136.72ZM615.879 813.48C633.505 811.774 649.71 808.363 664.493 803.246C674.159 771.405 686.384 731.32 701.167 682.99C716.519 634.661 734.429 578.655 754.898 514.974C762.858 489.956 770.534 467.781 777.926 448.449C785.886 429.117 792.709 413.197 798.395 400.688C760.868 397.277 736.703 395.571 725.9 395.571C700.883 395.571 678.708 398.414 659.376 404.1C663.925 423.432 667.336 443.332 669.61 463.801C671.885 484.27 673.022 505.308 673.022 526.914C673.022 616.182 653.974 711.704 615.879 813.48ZM597.969 813.48H599.675C608.772 791.305 617.016 768.846 624.408 746.103C631.8 722.791 638.338 699.479 644.024 676.167C636.633 652.287 622.134 640.346 600.527 640.346C597.116 640.346 593.136 641.199 588.587 642.905V638.641C588.587 630.112 591.999 622.152 598.822 614.76C605.645 607.369 613.321 603.673 621.849 603.673C640.613 603.673 649.71 619.309 649.141 650.581C657.67 608.506 661.934 566.146 661.934 523.502C661.934 501.896 660.797 481.427 658.523 462.095C656.817 442.764 653.974 424.285 649.994 406.658C596.547 423.147 549.924 458.684 510.123 513.268C490.791 540.56 476.008 568.136 465.773 595.997C455.539 623.289 450.421 651.149 450.421 679.579C450.421 721.085 464.92 754.347 493.918 779.365C521.21 802.108 555.894 813.48 597.969 813.48ZM356.605 1123.93C445.873 1123.93 527.18 1065.36 600.527 948.235C610.762 931.746 620.996 912.414 631.231 890.239C641.466 868.064 651.131 843.047 660.229 815.186C652.269 817.46 644.024 819.735 635.495 822.009C626.967 824.283 618.438 825.989 609.909 827.126C557.031 959.606 485.674 1043.76 395.837 1079.58C375.368 1088.11 351.772 1092.37 325.049 1092.37C260.23 1092.37 209.058 1073.04 171.531 1034.37C230.095 1094.08 291.786 1123.93 356.605 1123.93Z" fill="white"/>
<defs>
<linearGradient id="paint0_linear_1522_727" x1="867.671" y1="60" x2="186.3" y2="1247.95" gradientUnits="userSpaceOnUse">
<stop/>
<stop offset="1" stop-color="#5E13FE"/>
</linearGradient>
</defs>
</svg>
